<?xml version="1.0" encoding="utf-8"?>
<!-- Generator: Adobe Illustrator 22.0.1, SVG Export Plug-In . SVG Version: 6.00 Build 0)  -->
<svg version="1.1" id="Calque_1" xmlns="http://www.w3.org/2000/svg" xmlns:xlink="http://www.w3.org/1999/xlink" x="0px" y="0px"
	 viewBox="0 0 253.6 388.2" style="enable-background:new 0 0 253.6 388.2;" xml:space="preserve">
<g>
	<path d="M2.9,66.5C7.2,53.3,13.3,41.1,21.5,30c2.9-3.9,7-7.8,11.6-10.5c3-1.8,6.3-2.9,9.6-3.5c5.7-0.9,9.9,2,12.3,6.3
		c1,1.6,1.6,3.4,2.1,5.2c2.1,8.2,2,17.1,1.2,25.4c-0.6,6.5-2.4,9.6-4.2,10.7c-1.6,1-3.2,0.2-4-1.1c-0.2-0.3-0.3-0.7-0.4-1.1
		c-0.3-1.7-0.8-7,1.2-8.2c0.2-0.1,0.3-0.2,0.5-0.2c0.2-0.1,0.3-0.1,0.5-0.2c0.6-0.4,0.8-0.9,0.8-1.6c0.4-4.4,1.8-19.9-2.4-27.3
		c-1.6-2.7-3.9-4.3-7.3-3.8c-2.9,0.4-5.7,1.5-8.3,3c-4.8,2.8-8.9,7-11.8,11.2C13.3,48,4.2,67.4,3.4,84.6c-0.1,3.5,0.4,6.1,1.5,7.9
		c4,6.8,15,3,23.2-0.4c2-0.9,3.9-1.9,5.9-2.7c1.3-0.5,2.9-2,4.1-0.3l0.2,0.3c0.8,1.4-0.7,2.5-1.6,3.5c-1.6,2-3.2,3.8-5.1,5.6
		c-7.8,7.8-13.7,17-18.7,26.7C0.7,148.9,1.6,166,8.5,181.4c0.3,0.7,0.7,1.4,1.2,2.2c5.9,10.1,21.4,21,43.6,8.1
		c1.8-1.1,3.8-2.3,5.7-3.8c18.4-13.3,29.8-32.3,38.2-52.5c7.2-17.5,12.8-37.9,17.7-54.1c0.1-0.8,0.5-1.3,0.9-1.6
		c0.3-0.2,0.6-0.1,0.8,0.1c0.2,0.3,0.1,0.8,0,1.7c-4.7,16.5-10.8,36.7-17.8,54.5c-8.4,21.5-20.2,41.7-38.8,54.5
		c-1.4,0.9-2.8,1.8-4.1,2.6c-22.1,12.9-40.5,5.6-49-9c-0.6-1-1.1-2-1.5-3c-11.7-25,0.3-52.4,14.7-73.3c2.8-4.1,6.1-7.7,9.6-11.3
		c0.9-1,1.9-1.8,2.7-3.2c-7,2.5-17.2,7.9-24.9,5.2c-2.6-0.9-4.3-2.5-5.5-4.5c-1.7-2.9-2-6.5-1.9-10C0.2,78.2,1.1,72.3,2.9,66.5z"/>
	<path d="M122.3,111.9c-4.1-7.1-0.9-25.4-1.6-30.1c0-0.2-0.1-0.3-0.2-0.5c-0.4-0.6-1.1-1-1.9-0.7c-2,0.9-4.3,1.9-5.9,0.8
		c-0.3-0.2-0.7-0.5-1-1.1c-0.5-0.9-0.8-2.1-0.5-3.1c0.2-0.6,0.8-1.3,1.3-1.6c0.3-0.2,0.8-0.2,1.2,0c0.4,0.3,0.6,0.7,0.9,1.1l0.3,0.5
		c0.3,0.4,0.6,0.8,1.2,0.7c1.3-0.4,3.5-0.8,4.7-0.8c1.3-0.1,2.5,0.7,3.2,1.9c0.4,0.6,0.6,1.2,0.6,1.8c0.1,8.7-4.1,23.6-0.2,30.4
		c0.2,0.3,0.5,0.8,0.7,1.1c0.8,1,1.7,1.1,2.5,0.6c0.3-0.2,0.7-0.5,1.1-0.9c4.1-4,7.9-15.7,10.8-26.8c2-7.7,2.9-15.9,3.2-20.1
		c0-1-0.1-1.6-0.3-2c-0.1-0.2-0.3-0.3-0.4-0.5c-0.3-0.4,0.2-1.1,0.7-1.4c0.4-0.3,0.9-0.3,1.4,0.1c1,1,1.9,0.9,4.3,0.6
		c1.6-0.1,3,0,3.9,1.5c0.2,0.3,0.4,0.8,0.5,1.3c1.2,4.7-2.3,14.5,1.6,23.7c0.2,0.3,0.2,0.6,0.4,0.8c1.2,2,2.9,2.8,4.7,1.8
		c0.5-0.3,1.1-0.9,1.7-1.5c5.1-6.2,9.4-37.2,12.3-43.5c0.1-0.2,0.2-0.2,0.3-0.3c0.2-0.1,0.2-0.1,0.3-0.1c0,0.1,0.1,0,0.2,0.1
		c0.1,0.1,0.1,0.3-0.1,0.5c-2.2,6.5-4.1,15.1-5.7,23c-1.9,8.7-3.5,16.6-6.8,20.7c-0.7,0.8-1.3,1.4-1.9,1.8c-2.3,1.4-4.8,0.3-6.4-2.3
		c-4-6.8-2.3-17.4-2.7-22.6c-0.1-1-0.3-1.5-0.5-1.8c-0.3-0.4-0.6-0.6-1.1-0.6c-0.8-0.2-2.1,0.1-4.2,0.3c-0.1,0-0.3,0.1-0.4,0.1
		c-0.2,0.1-0.2,0.4-0.2,0.6c-0.6,3.8-1.5,11.7-3.7,20.3c-3.1,11.4-7.4,23.1-11,26.8c-0.4,0.3-0.7,0.6-1.1,0.9
		c-1.4,0.8-3.1,1-4.2,0.3C123.5,113.5,122.8,112.8,122.3,111.9z"/>
	<path d="M182.6,66.1c-1.3,0.8-3.6,0.2-4.6-1c-0.8-0.8-1.5-1.8-2.1-2.7c-0.3-0.5-0.6-1-0.8-1.5c-2.3-6.1-2.8-15.7-0.4-21.6
		c0.5-1.5,1.7-2.8,3.1-3.6c2.1-1.2,4.8-1.2,6.6,2c0.3,0.5,0.5,1.1,0.7,1.7c0.3,0.9,0.9,2.9,1.2,4.1c2.4-0.3,4.7-1.2,7.1-2.6
		c5.6-3.3,10.8-8.9,13.9-13.4c0.2-0.2,0.4-0.5,0.6-0.6c0.3-0.2,0.5-0.2,0.6,0s0,0.7-0.5,1.3c-2.1,3.2-7.6,9.3-13.3,13.1
		c-0.6,0.4-1.2,0.8-1.8,1.1c-2.2,1.3-4.6,2.3-6.4,2.3c0.6,6.6,1.1,13-1.9,19C184.2,64.6,183.6,65.5,182.6,66.1L182.6,66.1z
		 M179.7,63.6c0.5,0.8,1,1.3,1.6,0.9c0.3-0.2,0.6-0.7,1.1-1.5c1.7-4,2.5-13.7,1.5-18.3c-1.9-0.4-2.9-1.1-4.7-2.5
		c-1.2,6-2,15.2-0.1,20.1C179.2,62.8,179.5,63.3,179.7,63.6z M180.4,40.3c0.7,1.1,2.1,1.9,3.1,2.1c-0.4-1.6-0.6-3.2-1.3-4.4
		c-0.4-0.2-0.9-0.2-1.3,0c-0.6,0.4-1.1,1.1-0.7,1.9L180.4,40.3z"/>
	<path d="M218.2,54.3c-4.3-7.3-2-21.7-3.1-25.8c-0.1-0.2-0.1-0.4-0.2-0.6c-1.4-2.3-6.2,0.7-9.2,0.5c-0.7-0.2-1.3-0.7-1.8-1.6
		c-0.9-1.6-1.3-4-0.8-6.6c0.2-0.8,0.8-1.5,1.5-1.9c1.5-0.9,3.5-0.7,4.5,1c0.5,0.8,0.7,1.8,0.4,3.2c3.6-0.7,7.2-1.4,9.1,1.9
		c0.3,0.5,0.6,1,0.8,1.7c1.1,3.1-2.9,20.5,1.4,28l0.3,0.5c1.3,1.8,3.1,2.7,5.5,2c0.4-0.1,0.9-0.3,1.3-0.5
		c10.1-5.9,19.5-46.5,24-54.2c0.4-0.7,0.9-1.3,1.3-2c0.3,0.1,0.5,0.2,0.6,0.2c-0.1,0.5-0.2,1.2-0.6,1.6c-6.7,12.7-14.1,49.4-25,55.7
		c-0.4,0.3-0.8,0.5-1.2,0.6c-3.2,1.1-5.1,0.2-6.8-1.4C219.3,56.1,218.7,55.3,218.2,54.3z"/>
	<path d="M10.5,347c1.2,0.3,2-0.5,3-0.9c2.9-1.5,5.8-3.2,8.6-4.8c10.5-6.1,21.2-13.2,31.7-19.3c2.9-1.7,5.9-3.4,8.8-4.9
		c1.6-0.9,2.1-1.7,1.9-3.6c-1.6-17.1-3.3-34.2-4.3-51.3c-0.4-8.3-6.5-18.4-1.9-23c0.2-0.3,0.7-0.6,1-0.8c1.6-0.9,3-0.5,3.8,0.9
		c0.2,0.3,0.5,0.8,0.5,1.2c2.1,7.9,4.1,55.5,4.8,70c-0.1,0.9-0.1,1.7,0.4,2.5l0.2,0.3c5.5-2,10.8-5.4,16.9-5.5
		c0.1,0.6-0.1,0.9-0.3,1c-0.2,0.1-0.4,0-0.6,0.1c-5.1,0.9-9.5,3.3-14,5.5l-0.5,0.3c-1.6,0.9-1.8,1.9-1.8,3.7
		c1.8,19.5,3.3,46.8,7.2,65.2c0.3,1.9,1.2,3.9,0.3,4.4l-0.2,0.1c-0.7,0.2-1,0-1.4-0.6c-0.5-0.8-0.6-2.1-0.8-3.2
		c-4.7-19.1-6.3-45.9-8.9-66c-0.8,0-2.8,1-5.4,2.5c-11.8,6.9-37.7,25-45.5,29.6l-2.8,1.6c-2.7,1.1-4.3,0.4-5.2-1.1
		c-1-1.7-1-4.6-0.2-7.5c1.3-4.3,2.4-8.4,3.6-12.7c7.5-23.5,13.9-47.1,20.8-70.6c0.4-1.5,1.8-6.6,3-7.7l0.5-0.3
		c0.9-0.5,2-0.1,2.5,0.6c0.2,0.3,0.4,0.6,0.3,0.9c-0.2,6.1-3.2,17-4.7,23c-5.9,22.7-12,45-20.3,66.8C10.9,344.5,10.3,345.7,10.5,347
		z"/>
	<path d="M108,205.7c2.9-1.7,6.7-1.4,10.4,1.2c3.9,2.7,6.5,6.8,9,11.2c4.8,8.2,7.5,17.6,9.9,27c4.9,19.5,5.9,39.3,5.3,59.4
		c-0.4,11.4-1.9,38.5-11.5,47c-0.5,0.5-1,0.8-1.6,1.1c-4.7,2.7-9.2-1.1-12.3-5.1c-0.9-1.2-1.6-2.4-2.3-3.6
		c-9.7-16.8-15-49.4-16.9-65.9c-1-8.1-3-32.9-1.6-41c1-6.2,3.7-3.2,4-7.1c0-6,0.6-14.3,3.5-19.7C104.9,208.1,106.3,206.7,108,205.7z
		 M123.6,217.2c-2.4-4.2-8.8-12.3-14.4-9.1c-0.6,0.4-1.2,0.7-1.8,1.5c-4,4.8-4.5,15.1-4.9,20.9c0,0.6,0.1,1,0.3,1.3
		c0.4,0.6,1.2,1,2,2.4c0.7,1.2,1.5,3.3,1.6,7.4c0,1-0.1,1.5-0.6,1.8c-0.5,0.3-1,0-1.5,0.3c-0.5,0.3-0.6,0.8-0.6,1.8
		c-0.1,7.7-0.4,22.2,1.7,29.1c0,0.4,0.2,1.1,0,1.4c-0.9,1.6-0.4,3.3-0.3,4.9c1.7,17.9,4.7,36.3,10.3,53.4c0.7,2.3,2.2,6.6,4.3,10.3
		c2.3,3.9,5.3,7.1,8.6,5.2c0.6-0.4,1.5-1.1,2.1-2.1c4.9-5.9,7.4-18,8.1-25.3c2.9-27.4,1.6-54.7-5.4-81.3c-2.3-7.8-4.9-15.2-9.3-23.2
		L123.6,217.2z"/>
	<path d="M160.2,260c1.2,0.3,2-0.5,3-0.9c2.9-1.5,5.8-3.2,8.6-4.8c10.5-6.1,21.2-13.2,31.7-19.3c2.9-1.7,5.9-3.4,8.8-4.9
		c1.6-0.9,2.1-1.7,1.9-3.6c-1.6-17.1-3.3-34.2-4.3-51.3c-0.4-8.3-6.5-18.4-1.9-23c0.2-0.3,0.7-0.6,1-0.8c1.6-0.9,3-0.5,3.8,0.9
		c0.2,0.3,0.5,0.8,0.5,1.2c2.1,7.9,4.1,55.5,4.8,70c-0.1,0.9-0.1,1.7,0.4,2.5l0.2,0.3c5.5-2,10.8-5.4,16.9-5.5
		c0.1,0.6-0.1,0.9-0.3,1c-0.2,0.1-0.4,0-0.6,0.1c-5.1,0.9-9.5,3.3-14,5.5l-0.5,0.3c-1.6,0.9-1.8,1.9-1.8,3.7
		c1.8,19.5,3.3,46.8,7.2,65.2c0.3,1.9,1.2,3.9,0.3,4.4l-0.2,0.1c-0.7,0.2-1,0-1.4-0.6c-0.5-0.8-0.6-2.1-0.8-3.2
		c-4.7-19.1-6.3-45.9-8.9-66c-0.8,0-2.8,1-5.4,2.5c-11.8,6.9-37.7,25-45.5,29.6L161,265c-2.7,1.1-4.3,0.4-5.2-1.1
		c-1-1.7-1-4.6-0.2-7.5c1.3-4.3,2.4-8.4,3.6-12.7c7.5-23.5,13.9-47.1,20.8-70.6c0.4-1.5,1.8-6.6,3-7.7l0.5-0.3
		c0.9-0.5,2-0.1,2.5,0.6c0.2,0.3,0.4,0.6,0.3,0.9c-0.2,6.1-3.2,17-4.7,23c-5.9,22.7-12,45-20.3,66.8
		C160.6,257.5,160,258.7,160.2,260z"/>
</g>
</svg>
