<?xml version="1.0" encoding="utf-8"?>
<!-- Generator: Adobe Illustrator 22.0.1, SVG Export Plug-In . SVG Version: 6.00 Build 0)  -->
<svg version="1.1" id="Calque_1" xmlns="http://www.w3.org/2000/svg" xmlns:xlink="http://www.w3.org/1999/xlink" x="0px" y="0px"
	 viewBox="0 0 792.5 575.1" style="enable-background:new 0 0 792.5 575.1;" xml:space="preserve">
<g>
	<path d="M1.6,301.2C3,279.7,8.9,201,21.2,184.4c1-1.4,2.3-2.6,3.5-3.3c3.8-2.2,8.1-1.1,11.3,3.1c0.9,1.2,1.7,2.2,2.4,3.4
		c1.7,3,3,6.4,4.1,9.7c14.4,41.8,23.5,96,35,140c6.4,24.2,13.8,48,22.6,71.2c1.8,5,4.5,11.5,8,17.6c3.3,5.8,7.4,11.1,12.2,14
		c1.9,1.2,3.2,1.5,4.4,0.8c0.5-0.3,1.2-0.9,1.8-1.6c11.9-12.9,10.4-65.2,9.4-79.9c-3-41.1-8.1-81.8-13.5-122.5
		c-2.9-22-5.6-44.1-8.4-66c-2-15.5-5-29.7-2.9-45.3c0.4-2.9,1.4-4.5,2.3-5.1c0.9-0.5,2-0.1,2.6,1c0.4,0.8,0.6,2.1,0.1,3.5
		c-2.9,7.3-2.5,14.9-1.8,22.6c2.9,27.2,6.9,54.4,10.9,81.6c5.7,37.4,11.3,74.7,15.8,112.2c2.6,22.2,7.3,77.9-4.9,99.4
		c-2.3,4-4.7,6.6-7.2,8.1c-10.9,6.3-23.5-7.7-29.9-18.8l-0.7-1.3c-5.5-9.9-9.3-20.6-13.3-31.2C71.7,361.4,62.6,323.8,54.4,286
		c-3.6-16.4-17.3-80.4-25.7-95.1c-0.9-1.6-1.8-1.7-2.7-1.1c-2.5,1.4-4.9,7.8-5.3,9.3c-4.4,15.4-8.2,30.9-10.1,46.9
		c-1.3,13.2-2.6,26.6-3.4,40c-1.1,13.9-1.1,27.8-1.3,41.9c-0.4,17.9-0.2,35.4,0.4,53.2c0.5,12.8,1.6,25.7,2.4,38.3
		c0.6,11.3,1.2,22.4,2.8,33.5c2.3,17.8,8.1,50.4,14.1,67.7c1.3,3.8,0.7,5.9-2.2,7.5l-0.4,0.1c-2.7,1.4-5-0.7-6.4-3.2
		c-1.1-1.9-1.7-4-2-5.3c-1.2-7.6-2.6-15.1-4.2-22.5C-0.2,442.9-1.7,355.7,1.6,301.2z"/>
	<path d="M181.5,324.9c-2.3,1.3-6.4,0.4-8.3-1.9c-1.5-1.5-2.7-3.2-3.7-5c-0.5-0.9-1.1-1.9-1.4-2.7c-4-11-4.9-28.4-0.5-38.9
		c1-2.6,3.1-5.1,5.6-6.5c3.8-2.2,8.6-2,11.8,3.6c0.5,0.9,0.9,2,1.3,3c0.5,1.6,1.6,5.3,2.2,7.5c4.2-0.6,8.5-2.2,12.7-4.6
		c10.2-5.8,19.5-16,25.1-24c0.4-0.4,0.8-0.9,1.1-1c0.5-0.3,0.9-0.3,1.1,0c0.2,0.3,0.1,1.2-0.9,2.4c-3.8,5.7-13.7,16.6-24.2,23.4
		c-1.1,0.6-2.1,1.4-3.2,2c-4.1,2.3-8.2,4.1-11.5,4.1c1,11.9,1.8,23.5-3.6,34.3c-0.7,1.7-1.8,3.3-3.4,4.2L181.5,324.9z M176.3,320.5
		c0.8,1.4,1.7,2.3,2.8,1.7c0.6-0.4,1.1-1.3,1.9-2.8c3.1-7.2,4.6-24.6,2.9-33c-3.4-0.8-5.3-2-8.4-4.5c-2.3,10.9-3.8,27.3-0.4,36.2
		C175.4,318.9,175.9,319.8,176.3,320.5z M177.7,278.5c1.2,2,3.8,3.4,5.5,3.9c-0.7-2.9-1.1-5.8-2.3-8c-0.7-0.4-1.6-0.3-2.3,0
		c-1.1,0.6-2,2-1.3,3.5L177.7,278.5z"/>
	<path d="M137.4,226.7c-2.2,1.3-3,0.9-3.9,0.4c-0.3-0.2-0.8-0.6-0.9-0.9c-0.6-1.1-0.6-2.8,1.9-5.4c3.5-4.1,7.5-6.8,12.1-9.4l8.6-4.9
		c16.1-10,49.1-31.3,65.4-41.3c2.4-1.6,2.4-2.6,2.4-5.3c0-4.8-0.6-31.8,0.5-37.1c0.4-2.1,1.4-4.1,3.1-5.1c1.3-0.7,2.8-1,4.6-0.6
		c0.5,0.1,0.8,0.4,1.1,0.8c0.7,1.3,0.6,3.6,0.4,5.8c0,7.9-1.4,25.1-1.7,32.1c0,1-0.1,1.7,0.2,2.2s0.8,0.4,1.9-0.3
		c3-1.9,7.9-4.7,13.8-8.1c28-16,80.8-44.9,96.1-53c4-2.1,9.1-4.8,13.2-6.7c1.9-0.7,2.9-0.4,3.2,0.2c0.6,1.1-0.2,3-0.3,3.1l-0.2,0.1
		c-1.1,0.6-5.3,1.2-6.2,1.5c-5.7,2.7-23.8,12.8-44.4,24.7c-31.1,17.8-67.9,39.6-75.7,44.4c-2.3,1.3-2.7,4.7-2.8,6.4
		c0.8,41.5,0.8,126.3,10.1,164.9c0.3,1.3,1,2.8,1.4,4c1.4,0.2,3.4-0.9,4.2,0.5c0.1,0.2,0.2,0.3,0.2,0.7c0.2,1.8-0.7,4.2-2.3,5.1
		c-1.6,0.9-3.7,0.5-5.6-2.8c-0.7-1.3-1.4-2.7-1.9-4.7c-9-29.5-13.3-133.2-12.8-164.2c0.1-1.3-0.1-2-0.4-2.5
		c-0.4-0.8-1.3-0.5-2.9,0.4c-23.2,15-55.3,32.9-78.1,52.1C140,225,138.5,226,137.4,226.7z"/>
	<path d="M282.2,263c-8.1,4.7-14.9,0.4-18.5-5.8c-1.4-2.5-2.4-5.3-2.7-8c-1.8-13.7,1.6-26.2,10.1-37.4c1.1-1.7,2.4-2.6,3.7-3.4
		c3.3-1.9,6.3-0.5,7.9,2.1c0.9,1.6,1.3,3.4,1.1,5.2c-0.3,3.1-0.5,6.3-1.9,9c-2.7,5.5-6,10.9-9.2,16.3c-1,1.6-2.3,3-3.8,3.9
		c-0.9,0.5-2,0.9-3.2,1.2c-0.3,3.9,0.6,7.2,2,9.6c2.9,5,8.4,6.4,14.8,2.7c1.7-1,3.3-2.1,5-3.7c13.2-12.5,30.4-40.5,37.1-56.6
		c0.1-0.5,0.4-0.8,0.7-1c0.2-0.1,0.4,0,0.6,0.3c0.1,0.2,0.1,0.6-0.1,1.3c-5.6,16.3-27,53.7-42.6,63.7L282.2,263z M265.8,240.2
		c5.6-5.9,11-19.6,9.5-23.9C269.2,222.9,267.3,231.1,265.8,240.2z"/>
	<path d="M293.4,137.2c-2.2,1.3-3,0.9-3.9,0.4c-0.3-0.2-0.8-0.6-0.9-0.9c-0.6-1.1-0.6-2.8,1.9-5.4c3.5-4.1,7.5-6.8,12.1-9.4l8.6-4.9
		c16-10,49.1-31.3,65.4-41.3c2.4-1.6,2.4-2.6,2.4-5.3c0-4.8-0.6-31.8,0.5-37.1c0.4-2.1,1.4-4.1,3.1-5.1c1.3-0.7,2.8-1,4.6-0.6
		c0.5,0.1,0.8,0.4,1.1,0.8c0.7,1.3,0.6,3.6,0.4,5.8c0,7.9-1.4,25.1-1.7,32.1c0,1-0.1,1.7,0.2,2.2s0.8,0.4,1.9-0.3
		c3-1.9,7.9-4.7,13.8-8.1c28-16,80.8-44.9,96.1-53c4-2.1,9.1-4.8,13.2-6.7c1.9-0.7,2.9-0.4,3.2,0.2c0.6,1.1-0.2,3-0.3,3.1l-0.2,0.1
		c-1.1,0.6-5.3,1.2-6.2,1.5C503,8,484.9,18.1,464.3,30c-31.1,17.8-67.9,39.6-75.7,44.4c-2.3,1.3-2.7,4.7-2.8,6.4
		c0.8,41.5,0.8,126.3,10.1,164.9c0.3,1.3,1,2.8,1.4,4c1.4,0.2,3.4-0.9,4.2,0.5c0.1,0.2,0.2,0.3,0.2,0.7c0.2,1.8-0.7,4.2-2.3,5.1
		s-3.7,0.5-5.6-2.8c-0.7-1.3-1.4-2.7-1.9-4.7c-9-29.5-13.3-133.2-12.8-164.2c0.1-1.3-0.1-2-0.4-2.5c-0.4-0.8-1.3-0.5-2.9,0.4
		c-23.2,15-55.3,32.9-78.1,52.1C295.9,135.5,294.4,136.6,293.4,137.2z"/>
	<path d="M433.9,180.2c-2.3,1.3-6.4,0.4-8.3-1.9c-1.5-1.5-2.7-3.2-3.7-5c-0.5-0.9-1.1-1.9-1.4-2.7c-4-11-4.9-28.4-0.5-38.9
		c1-2.6,3.1-5.1,5.6-6.5c3.8-2.2,8.6-2,11.8,3.6c0.5,0.9,0.9,2,1.3,3c0.5,1.6,1.6,5.3,2.2,7.5c4.2-0.6,8.5-2.2,12.7-4.6
		c10.2-5.8,19.5-16,25.1-24c0.4-0.4,0.8-0.9,1.1-1c0.5-0.3,0.9-0.3,1.1,0s0.1,1.2-0.9,2.4c-3.8,5.7-13.7,16.6-24.2,23.4
		c-1.1,0.6-2.1,1.4-3.2,2c-4.1,2.3-8.2,4.1-11.5,4.1c1,11.9,1.8,23.5-3.6,34.3c-0.7,1.7-1.8,3.3-3.4,4.2L433.9,180.2z M428.6,175.7
		c0.8,1.4,1.7,2.3,2.8,1.7c0.6-0.4,1.1-1.3,1.9-2.8c3.1-7.2,4.6-24.6,2.9-33c-3.4-0.8-5.3-2-8.4-4.5c-2.3,10.9-3.8,27.3-0.4,36.2
		C427.7,174.1,428.3,175.1,428.6,175.7z M430.1,133.7c1.2,2,3.8,3.4,5.5,3.9c-0.7-2.9-1.1-5.8-2.3-8c-0.7-0.4-1.6-0.3-2.3,0
		c-1.1,0.6-2,2-1.3,3.5L430.1,133.7z"/>
	<path d="M335.6,486.8c1.4,5.7,6.8,27.9,9.6,32.7l0.1,0.2c1.1-1,1.2-2.3,1.3-3.5c2.1-10.5,3.5-21.1,4.5-31.7
		c4.4-40.9,7.8-81.7,10.7-122.6c2.1-29.7,4.7-59.2,7.9-88.7c1.6-13.2,0.4-25,2.6-38.5c0.5-2.8,1.4-4.4,2.7-5.1s2.8-0.2,3.5,1.1
		c0.3,0.5,0.5,0.9,0.5,1.6c1,17.7,0.2,35.8-0.2,53.7c-0.2,19.9,0.9,39.6,3.6,59.2c1.3,10.7,2.5,21.4,4.1,32.1
		c1.7,11.7,4.6,23.1,7.1,34.8c3,13.2,6.9,26.2,10.9,38.8c4.8,15.5,17.9,46,25.1,60.4c1.5,3.1,3.5,6.9,5.8,10.8
		c5.2,9.1,12,18.7,20,21.5c1,0.3,1.5,0.8,1.9,1.4c0.4,0.8,0.2,1.8-0.6,2.2c-0.6,0.4-1.6,0.5-2.7,0.1c-10.7-3-18.9-14.9-24.3-23.9
		l-3.6-6.3c-11-19.2-20.8-39.2-28.1-60.3c-18.1-51.7-23.3-91.3-26.5-144.7c-0.1-1.2-0.3-2.3-0.3-4.2c-1,2.2-0.9,3.8-1.1,5.4
		c-3.2,34.9-5.7,69.7-7.7,104.5c-0.8,15-5,96.3-11.2,110.1c-0.9,1.7-1.9,2.9-3.1,3.6c-2.7,1.5-5.9,0.7-8.2-2.8l-1-1.7
		c-10.7-18.6-26.7-93.3-30.1-110.5C302.4,384,298.7,349.4,295,316c-0.9,1.7-0.8,3-1,4.1c-5.4,68.7-9.4,137.5-10.1,206.5
		c-0.1,7.1-0.3,37.5-1.6,43.3c-0.5,2.4-1.7,3.9-3,4.6c-2.3,1.3-5.4,0.4-7.3-2.9l-0.2-0.3c-5.5-9.9-7.8-31.3-7.8-42.2
		c-0.3-41.4,0-82.6,2.7-124.1c1-12.8,4.2-42.3,10.6-54.7c0.8-1.5,1.6-2.6,2.6-3.1c1.3-0.7,2.7-0.7,5.2-0.1c0.7-1.3,0.4-2.5,0.5-3.8
		c0.5-7.5,3.8-64.7,4.3-67.1c0.3-1.2,1.3-2.4,2.4-3c1.9-1.1,4.6-0.7,6.4,2.5c0.6,1.1,1.4,2.7,1.7,4.8c2.2,11.4,3.5,23.1,5,34.7
		c3.9,27.5,6.7,55.1,11.4,82.6C321.8,427.9,328.1,457.4,335.6,486.8z M284.2,359.5c-0.2-0.3-0.4-0.8-1-1.1c-0.9,1.3-1.1,2.5-1.3,3.9
		c-8,34.5-8.9,106.1-9,141.2c-0.1,12.1,0,24.3,1,36.4c0,1.1,0,2.5,0.7,3.8l0.3,0.5l0.8-37c1.6-47.2,5.9-96.5,8.9-144.2
		C284.7,361.7,284.8,360.6,284.2,359.5z"/>
	<path d="M429.1,554.5l-0.2-0.3c-8-13.9-5.4-34.3-2.7-50.4c5.1-31.6,16.7-57.4,29.6-85.9c0.9-2,1.3-3.9,1.4-6
		c-0.2-9.7,0.1-21.9-0.6-31c-0.2,0.1-0.4,0-0.6,0c-0.3,1.2-0.9,2.4-1.2,3.6c-2.7,8.4-11.1,32.4-16.6,39.2c-0.8,1.1-2,2-2.9,2.5
		c-3.1,1.8-6.4,0.8-8.5-2.8l-0.5-0.9c-7.8-15.9-3.7-44.8,1.6-47.9c0.6-0.4,1.2-0.5,1.8-0.2c0.8,0.4,1.3,0.9,1.7,1.5
		c1.2,2,0.5,4.9,0.2,8c-1.1,10.4-0.8,20.6,0.6,31c0.2,1.4,0.2,2.8,0.9,4.1c0.4,0.6,0.8,1,1.3,1.5c1.3-2,2.7-3.6,3.6-5.6
		c9.9-18.2,13.2-30.6,19.4-49.5c0.2-0.7,0.3-1.6,0.8-2.3c0.4-0.4,0.8-0.9,1.1-1c0.9-0.5,1.8-0.2,2.3,0.8l0.4,0.6
		c0.7,1.5,1.5,31.3,1.8,35.7l0.3,0.5c0.1,0.2,0.3,0.5,0.4,1c10.2-20.6,22.4-39.2,37.1-55.9c0.2,0.1,0.6,0.3,0.8,0.4
		c-0.2,0.7-0.4,1.5-0.8,2.1c-2.3,3.2-4.7,6.2-7.1,9.3c-11.7,15.4-21.2,32.3-29.3,49.9c-0.7,1.7-1,3.7-1,5.5
		c0.5,12.8,1.3,25.4,1.7,38.1c0.6,28.1-0.6,62-8.9,89.4c-2,7-7,14.6-13.2,18.2c-0.8,0.4-1.6,0.9-2.4,1.2
		C435.3,560.7,432.1,559.4,429.1,554.5z M432,551.6l0.4,0.6c2.2,3.8,4.3,4.2,8.4,2l0.5-0.3c4.5-2.6,8.3-8.3,10-13
		c6-18.2,8.1-36.2,8.2-55.2c0.2-15.3-0.1-48.3-2.1-62.7c-3.9,7.4-8.2,18.2-11.4,26.1c-10.4,25.3-18.9,55.3-18.7,83
		C427.3,539.1,428.6,545.6,432,551.6z"/>
	<path d="M534.6,425.2c-7.3,4.2-14.1,2.5-18-4.2c-2.2-3.8-3.4-9.2-3.3-15.9c0.2-24.6,15.2-49.9,30.3-67.4c-3-2.3-32.3,19-41.3,10.2
		c-0.5-0.5-1.1-1.2-1.5-1.9c-7.4-12.8,8-49,18.9-55.3c0.5-0.3,1-0.4,1.3-0.6c3.6-1.4,9.2-0.7,11.9,1.9c0.3,0.2,0.5,0.5,0.8,1
		c1.3,2.3,1.7,7.3-0.8,8.8c-1.4,0.8-3.4,0.7-6.4-1.3c-1.1-0.8-2.5-0.7-4,0.2c-8.6,4.9-21.5,33.1-16.7,41.5l0.2,0.3
		c2.5,3.6,11,0.3,19.3-3.4c8.3-3.9,16.4-8.4,21.4-5.4c8.3-9.8,30.8-29.9,41.1-37.7c0.7-0.6,1.3-1,1.9-1.3c1.1-0.6,1.8-0.8,2-0.5
		s-0.3,1-1.8,2.3c-8.8,7.1-32.3,28.5-39.7,38.3c-0.2,0.3-0.1,0.5,0,0.8c0.5,0.9,3.4,2.6,6,7.2c1.4,2.5,2.8,6.1,3.6,11
		c3.1,20.9-2.7,46.4-15.9,62.9C540.9,420.6,537.7,423.4,534.6,425.2z M519,419.4c3,5.2,7.9,5.8,13.2,2.8c2.5-1.4,5.3-3.9,7.8-7
		c13.5-16.3,19.2-45.5,14.2-66.1c-0.3-1.7-1.1-3.3-1.9-4.7c-1.2-2-2.8-3.8-5.2-5.1c-13.5,14.8-30.8,44.5-31,65.5
		C516.1,411.5,517.2,416.3,519,419.4z"/>
	<path d="M610.9,323.7c-8.1,4.7-14.9,0.4-18.5-5.8c-1.4-2.5-2.4-5.3-2.7-8c-1.8-13.7,1.6-26.2,10.1-37.4c1.1-1.7,2.4-2.6,3.7-3.4
		c3.3-1.9,6.3-0.5,7.9,2.1c0.9,1.6,1.3,3.4,1.1,5.2c-0.3,3.1-0.5,6.3-1.9,9c-2.7,5.5-6,10.9-9.2,16.3c-1,1.6-2.3,3-3.8,3.9
		c-0.9,0.5-2,0.9-3.2,1.2c-0.3,3.9,0.6,7.2,2,9.6c2.9,5,8.4,6.4,14.8,2.7c1.7-1,3.3-2.1,5-3.7c13.2-12.5,30.4-40.5,37.1-56.6
		c0.1-0.5,0.4-0.8,0.7-1c0.2-0.1,0.4,0,0.6,0.3c0.1,0.2,0.1,0.6-0.1,1.3c-5.6,16.3-27,53.7-42.6,63.7L610.9,323.7z M594.5,300.9
		c5.6-5.9,11-19.6,9.5-23.9C597.9,283.6,595.9,291.8,594.5,300.9z"/>
	<path d="M685.9,314.7c-8.7,4-14.9-1.7-18.9-8.7c-8.8-15.3-15.1-52-17.7-69c-4.9-33.1-6.9-63.1,0.6-98.2c0.8-3.6,1.8-7,3.2-10.4
		c1.5-3.6,3.7-5.9,6.2-7.3c1.7-1,3.7-1.5,5.5-1.3c3.1,0.3,5.3,2.4,7,5.3c5,8.8,5.3,25.2,5.2,31.1c0.1,22.2-4.5,66-16.8,91.7
		c-1.1,2.1-2.1,4.7-1.9,6.5c2,14,4.8,30.5,12.8,47.9c0.4,0.6,0.6,1.3,1,2.1c2.8,4.8,7.4,8.9,12.9,5.9l0.5-0.3
		c18.3-10.5,31-79.9,33.8-87.7c0.5-1.3,0.9-1.7,1.6-3l0.2-0.1c0.5-0.3,1-0.1,1.2,0.3l0.1,0.2c-0.4,1.9-0.2,1.4-0.6,2.6
		c-5.6,15.7-16.4,81.1-34.7,91.6L685.9,314.7z M657.4,242.6c0.2,0.3,0.7,0.4,1,0.3c0.3-0.2,0.5-0.5,0.6-0.8
		c11.2-25.7,14.2-57.1,14-85.7c-0.1-4.1-0.4-21.4-4.4-28.2c-1.1-1.9-2.4-3-4.1-2.8c-0.4,0-0.7,0.2-1.2,0.5c-1.6,0.9-3.1,3-4.1,6.7
		c-0.9,3.8-1.7,7.6-2.3,11.5c-5.2,29.4-2.6,60.9-0.5,90.8c0.1,1.6,0.5,5.9,0.8,7.5L657.4,242.6z"/>
	<path d="M741.7,380.8c-2.5,1.4-5.9,0.7-9.4-5.4l-0.2-0.3c-3.6-6.7-6.1-13.9-7.3-21.4c-2-11.5-3.9-23.1-5-34.7
		c-3.8-43.1-1.9-107.5,6-150.3c1.6-8.2,3.7-16.4,6.1-24.5c1.5-5,4-9.8,6.4-14.2c1.3-2.4,3.1-4.3,5-5.4c3.6-2.1,7.7-1.5,9.5,1.8
		c0.4,0.8,0.7,1.7,1,2.8c0.5,3.4-0.1,7.8-2.5,9.1c-1.4,0.8-3.2,0.6-5.8-1.4c-1.4,3.1-2.8,6-3.8,9c-2,7-4,14-5.6,21.1
		c-3.4,16.5-8.7,65.2-9.7,82.4c1.4-1.6,2-2.4,2.6-3.4c12.4-20.4,26.7-39.2,44.8-55.2c4.2-3.9,9.4-6.8,14.4-10.1l0.5-0.3
		c0.9-0.5,2.2-0.9,3.4-1.3l0.4,0.8c-0.5,0.5-0.8,1.1-1.3,1.4c-0.8,0.4-1.8,0.8-2.7,1.4c-19.7,11.3-42.7,43.6-52.7,61.6
		c-3.3,5.8-5.7,12.2-8.1,18.5c-1.3,3.2-1.3,6.1,0.4,8.9c0.5,0.9,1.2,1.8,2.2,2.7c2,2,3.6,4.2,5,6.5c2.7,4.7,4.4,10.2,6.1,15.4
		c2.7,8,4,16.4,4.5,24.8c0.8,12,1.5,24,1.8,36.1c0.1,5.3-1,11-1.8,16.4C745.6,376.4,743.9,379.5,741.7,380.8z M737.4,372.9
		c0.8,1.4,1.6,2.4,2.5,3.3c0.7-2.1,1.4-3.3,1.8-4.8c0.6-3.7,1.6-7.4,1.7-11.2c0.3-16.8-0.4-33.6-2.9-50.3
		c-0.9-6.3-4.2-18.2-8.8-26.1c-1.9-3.3-3.8-5.9-6.1-7.3c-0.1,1.9-0.3,3.1-0.3,4.5c0.7,15.6,1.2,31.5,2.4,47.2
		C728.3,337.5,731.1,361.9,737.4,372.9z"/>
</g>
</svg>
